<?xml version="1.0" encoding="UTF-8" standalone="no"?>
<svg
   xmlns:dc="http://purl.org/dc/elements/1.1/"
   xmlns:cc="http://creativecommons.org/ns#"
   xmlns:rdf="http://www.w3.org/1999/02/22-rdf-syntax-ns#"
   xmlns:svg="http://www.w3.org/2000/svg"
   xmlns="http://www.w3.org/2000/svg"
   id="svg13"
   xml:space="preserve"
   viewBox="0 0 1024 768"
   y="0px"
   x="0px"
   version="1.1"><metadata
     id="metadata19"><rdf:RDF><cc:Work
         rdf:about=""><dc:format>image/svg+xml</dc:format><dc:type
           rdf:resource="http://purl.org/dc/dcmitype/StillImage" /></cc:Work></rdf:RDF></metadata><defs
     id="defs17" /><g
     transform="matrix(2.7644,0,0,2.7644,-903.65,-677.19)"
     id="logo-group"><g
       transform="matrix(1.44,0,0,1.44,368,240)"
       id="container-group"><path
         style="fill:#202225"
         d="m 100.01,21.086 c -0.15846,0.0039 -0.43813,0.02836 -0.62161,0.05504 -0.18348,0.02669 -0.52486,0.10953 -0.75894,0.18515 -0.26799,0.08562 -3.2404,1.5957 -8.0064,4.0666 l -30.097,15.604 c -12.384,6.4212 -22.629,11.752 -22.768,11.846 -0.13844,0.09452 -0.41756,0.33638 -0.61994,0.5371 -0.20238,0.20127 -0.48261,0.54321 -0.62328,0.76061 -0.14067,0.2174 -0.30914,0.52931 -0.37474,0.69444 -0.06505,0.16458 -0.1529,0.41088 -0.1946,0.54766 -0.0417,0.13678 -0.10286,0.48706 -0.13566,0.7784 -0.04226,0.37363 -0.05449,13.358 -0.04281,44.065 l 0.01724,43.535 0.0973,0.35417 c 0.05338,0.19516 0.16346,0.51875 0.24408,0.72002 0.08006,0.20127 0.23296,0.5143 0.33916,0.695 0.1062,0.18126 0.37141,0.51708 0.58936,0.74671 0.2174,0.22907 0.54599,0.5232 0.73003,0.6533 0.18348,0.1301 13.482,7.0601 29.551,15.4 16.07,8.3394 29.585,15.362 30.033,15.604 0.44869,0.24297 0.99357,0.50207 1.211,0.57602 0.21684,0.0739 0.59826,0.16402 0.84679,0.20071 0.24853,0.0361 0.66776,0.0517 0.93131,0.035 0.2641,-0.0172 0.66386,-0.0756 0.88904,-0.1301 0.22518,-0.0545 0.61271,-0.20072 0.86013,-0.32526 0.24798,-0.12455 13.846,-7.1757 30.216,-15.669 16.371,-8.4935 29.872,-15.516 30.003,-15.607 0.13121,-0.0901 0.37863,-0.2919 0.54933,-0.44758 0.17069,-0.15624 0.42756,-0.43869 0.57045,-0.62717 0.14345,-0.18904 0.36641,-0.56879 0.49651,-0.84401 0.12955,-0.27522 0.28245,-0.67554 0.33916,-0.8896 l 0.10286,-0.3892 v -87.963 l -0.1023,-0.3614 c -0.0562,-0.19849 -0.18682,-0.54488 -0.29079,-0.7695 -0.10342,-0.22462 -0.29969,-0.5649 -0.43646,-0.75616 -0.13622,-0.19126 -0.43313,-0.52042 -0.65997,-0.7317 -0.2263,-0.21072 -0.59715,-0.48761 -0.82344,-0.61438 -0.2263,-0.12732 -13.822,-7.1813 -30.213,-15.676 -18.509,-9.5921 -29.971,-15.502 -30.25,-15.596 -0.24686,-0.08396 -0.64273,-0.17959 -0.87959,-0.21239 -0.23741,-0.0328 -0.561,-0.05727 -0.71946,-0.05338 z m -4.726,12.565 c 0.0556,-0.005 0.0695,4.6426 0.0695,23.068 0,12.691 -0.01668,23.074 -0.03725,23.074 -0.02002,0 -10.04,-5.1853 -22.267,-11.523 -19.385,-10.049 -22.217,-11.533 -22.133,-11.595 0.05338,-0.03948 0.62216,-0.34361 1.2643,-0.67498 0.64218,-0.33193 2.0933,-1.0836 3.2248,-1.6708 1.1315,-0.58769 2.3452,-1.2176 2.6966,-1.4011 0.35195,-0.18292 8.846,-4.5937 18.876,-9.8017 10.03,-5.2081 18.268,-9.472 18.306,-9.4754 z m 9.5971,0.0039 c 0.0417,0.0095 10.061,5.1969 22.266,11.527 12.205,6.3301 22.191,11.521 22.192,11.537 0.001,0.01501 -10,5.2131 -22.226,11.551 -12.225,6.3378 -22.246,11.523 -22.268,11.523 -0.0222,0 -0.04,-10.385 -0.04,-23.078 0,-19.463 0.0117,-23.076 0.0756,-23.06 z"
         id="container" /></g><path
       stroke-miterlimit="2"
       d="m 459.56,440.59 c -0.7072,-0.816 -1.7408,-1.3328 -3.1008,-1.6048 0.952,-0.2992 1.7408,-0.8432 2.312,-1.6048 0.5712,-0.7344 0.8704,-1.632 0.8704,-2.7472 0,-1.5504 -0.5984,-2.7472 -1.7408,-3.5904 -1.1424,-0.8432 -2.7472,-1.2784 -4.8144,-1.2784 h -7.9424 v 1.1968 h 7.888 c 1.6592,0 2.9376,0.3264 3.8352,0.9792 0.8976,0.6528 1.36,1.5776 1.36,2.8016 0,1.2512 -0.4624,2.2032 -1.36,2.856 -0.8976,0.6528 -2.176,0.952 -3.8352,0.952 h -7.888 v 1.1968 h 8.4864 c 1.8224,0 3.2368,0.3264 4.1888,0.952 0.952,0.6528 1.4416,1.632 1.4416,2.9648 0,1.36 -0.4896,2.3392 -1.4416,2.992 -0.952,0.6528 -2.3392,0.952 -4.1888,0.952 h -8.4864 v 1.1968 h 8.4864 c 2.312,0 4.0528,-0.4352 5.2496,-1.3056 1.1696,-0.8704 1.768,-2.0944 1.768,-3.7264 0,-1.2784 -0.3808,-2.3392 -1.088,-3.1824 z"
       style="font-variant-ligatures:none;fill:#ffffff;stroke:#ffffff;stroke-width:2.46499991;stroke-miterlimit:2"
       id="path328757" /><path
       stroke-miterlimit="2"
       d="m 475.92,446.84 c 1.3328,1.4144 3.2096,2.0944 5.6304,2.0944 2.3936,0 4.2704,-0.68 5.6304,-2.0944 1.3328,-1.3872 2.0128,-3.4272 2.0128,-6.12 v -10.96 h -1.3872 v 10.907 c 0,2.3392 -0.544,4.1072 -1.6048,5.2496 -1.088,1.1696 -2.6112,1.7408 -4.624,1.7408 -2.04,0 -3.5904,-0.5712 -4.6512,-1.7408 -1.088,-1.1424 -1.6048,-2.9104 -1.6048,-5.2496 v -10.91 h -1.3872 v 10.962 c 0,2.6928 0.6528,4.7328 1.9856,6.12 z"
       style="font-variant-ligatures:none;fill:#ffffff;stroke:#ffffff;stroke-width:2.46499991;stroke-miterlimit:2"
       id="path328759" /><path
       stroke-miterlimit="2"
       d="m 520.54,434.39 c -0.8704,-1.4416 -2.0672,-2.5568 -3.5904,-3.4 -1.5232,-0.816 -3.2912,-1.224 -5.2496,-1.224 h -7.5344 v 1.2512 h 7.4256 c 1.7408,0 3.2912,0.3536 4.6512,1.0608 1.3328,0.7072 2.3664,1.6864 3.1008,2.9104 0.7072,1.2512 1.088,2.6928 1.088,4.2976 0,1.632 -0.3808,3.0464 -1.088,4.2976 -0.7344,1.2512 -1.768,2.2304 -3.1008,2.9376 -1.36,0.7072 -2.9104,1.0336 -4.6512,1.0336 h -6.0384 v -8.2688 h -1.3872 v 9.52 H 511.7 c 1.9584,0 3.7264,-0.408 5.2496,-1.224 1.5232,-0.816 2.72,-1.9312 3.5904,-3.3728 0.8432,-1.4416 1.2784,-3.0736 1.2784,-4.9232 0,-1.8224 -0.4352,-3.4544 -1.2784,-4.896 z"
       style="font-variant-ligatures:none;fill:#ffffff;stroke:#ffffff;stroke-width:2.46499991;stroke-miterlimit:2"
       id="path328761" /><path
       stroke-miterlimit="2"
       d="m 551.51,434.39 c -0.8704,-1.4416 -2.0672,-2.5568 -3.5904,-3.4 -1.5232,-0.816 -3.2912,-1.224 -5.2496,-1.224 h -7.5344 v 1.2512 h 7.4256 c 1.7408,0 3.2912,0.3536 4.6512,1.0608 1.3328,0.7072 2.3664,1.6864 3.1008,2.9104 0.7072,1.2512 1.088,2.6928 1.088,4.2976 0,1.632 -0.3808,3.0464 -1.088,4.2976 -0.7344,1.2512 -1.768,2.2304 -3.1008,2.9376 -1.36,0.7072 -2.9104,1.0336 -4.6512,1.0336 h -6.0384 v -8.2688 h -1.3872 v 9.52 h 7.5344 c 1.9584,0 3.7264,-0.408 5.2496,-1.224 1.5232,-0.816 2.72,-1.9312 3.5904,-3.3728 0.8432,-1.4416 1.2784,-3.0736 1.2784,-4.9232 0,-1.8224 -0.4352,-3.4544 -1.2784,-4.896 z"
       style="font-variant-ligatures:none;fill:#ffffff;stroke:#ffffff;stroke-width:2.46499991;stroke-miterlimit:2"
       id="path328763" /><path
       stroke-miterlimit="2"
       d="m 571.19,442.25 7.6704,-12.485 h -1.4416 l -6.8816,11.206 -6.8816,-11.206 h -1.5232 l 7.6704,12.485 v 6.5552 h 1.3872 z"
       style="font-variant-ligatures:none;fill:#ffffff;stroke:#ffffff;stroke-width:2.46499991;stroke-miterlimit:2"
       id="path328765" /><path
       stroke-miterlimit="2"
       d="m 444.43,379.54 v 40.32 h 30.643 v -9.0432 h -19.23 v -31.28 z"
       style="font-variant-ligatures:none;fill:#ffffff;stroke-width:0;stroke-miterlimit:2"
       id="path328768" /><path
       stroke-miterlimit="2"
       d="m 512.12,379.54 h -11.232 l -17.798,40.32 h 11.635 l 3.168,-7.8336 3.3408,-8.4096 5.184,-12.902 5.184,12.902 3.3408,8.4096 3.168,7.8336 h 11.866 z"
       style="font-variant-ligatures:none;fill:#ffffff;stroke-width:0;stroke-miterlimit:2"
       id="path328770" /><path
       stroke-miterlimit="2"
       d="m 541.21,419.86 h 11.174 v -6.7968 l -11.17,-14.22 z m 27.187,-40.32 v 7.3152 l 11.174,13.478 v -20.8 z m 0,21.485 -17.798,-21.485 h -9.3888 v 5.3568 l 11.174,13.478 17.798,21.485 h 9.3888 v -4.6656 l -11.174,-14.227 z"
       style="font-variant-ligatures:none;fill:#ffffff;stroke-width:0;stroke-miterlimit:2"
       id="path328772" /></g></svg>