<?xml version="1.0" encoding="UTF-8" standalone="no"?>
<svg
   xmlns:dc="http://purl.org/dc/elements/1.1/"
   xmlns:cc="http://creativecommons.org/ns#"
   xmlns:rdf="http://www.w3.org/1999/02/22-rdf-syntax-ns#"
   xmlns:svg="http://www.w3.org/2000/svg"
   xmlns="http://www.w3.org/2000/svg"
   id="svg13"
   xml:space="preserve"
   viewBox="0 0 1024 768"
   y="0px"
   x="0px"
   version="1.1"><metadata
     id="metadata19"><rdf:RDF><cc:Work
         rdf:about=""><dc:format>image/svg+xml</dc:format><dc:type
           rdf:resource="http://purl.org/dc/dcmitype/StillImage" /></cc:Work></rdf:RDF></metadata><defs
     id="defs17" /><rect
     id="rect2"
     height="768"
     width="1024"
     fill="#202225" /><g
     style="fill:#ffffff;stroke-width:0;stroke-miterlimit:2"
     transform="matrix(1.2695,0,0,1.2695,-137.98,-103.48)"
     stroke-miterlimit="2"
     id="logo-group"><path
       d="m 310.34,363.44 v 40.32 h 30.643 v -9.0432 h -19.238 v -31.277 z"
       style="font-variant-ligatures:none"
       id="path213639" /><path
       d="M 378.03,363.44 H 366.798 L 349,403.76 h 11.635 l 3.168,-7.8336 3.3408,-8.4096 5.184,-12.902 5.184,12.902 3.3408,8.4096 3.168,7.8336 h 11.866 z"
       style="font-variant-ligatures:none"
       id="path213641" /><path
       d="m 407.12,403.76 h 11.174 v -6.8 L 407.12,382.733 Z m 27.187,-40.32 v 7.3152 l 11.174,13.478 v -20.794 z m 0,21.485 -17.798,-21.485 h -9.3888 v 5.3568 l 11.174,13.478 17.798,21.485 h 9.3888 v -4.6656 l -11.17,-14.23 z"
       style="font-variant-ligatures:none"
       id="path213643" /><path
       d="m 497.98,386.53 c -1.3248,-1.728 -3.168,-2.9952 -5.4144,-3.8016 1.6704,-0.864 3.0528,-2.0736 3.9744,-3.5712 0.9216,-1.4976 1.44,-3.2256 1.44,-5.184 0,-3.2256 -1.3824,-5.76 -4.032,-7.6608 -2.7072,-1.9008 -6.624,-2.88 -11.75,-2.88 h -20.621 v 8.2368 H 480.7 c 3.8016,0 5.76,1.3248 5.76,3.8592 0,2.6496 -1.9584,3.9168 -5.76,3.9168 h -19.123 v 7.8912 h 20.851 c 3.9744,0 5.9904,1.3824 5.9904,4.0896 0,2.7648 -2.016,4.0896 -5.9904,4.0896 h -20.851 v 8.2368 h 21.773 c 5.3568,0 9.4464,-0.9216 12.326,-2.88 2.8224,-1.9008 4.2624,-4.608 4.2624,-8.1792 0,-2.4192 -0.6912,-4.4352 -1.9584,-6.1632 z"
       style="font-variant-ligatures:none"
       id="path213645" /><path
       d="m 518.51,399.67 c 3.3408,3.2832 8.0064,4.896 13.997,4.896 5.9904,0 10.598,-1.6128 13.939,-4.896 3.3408,-3.2256 5.0112,-7.8912 5.0112,-13.882 v -22.349 h -11.232 v 22 c 0,6.4512 -2.5344,9.6768 -7.6032,9.6768 -5.1264,0 -7.6608,-3.2256 -7.6608,-9.6768 v -22 h -11.41 v 22.349 c 0,5.9904 1.6128,10.656 4.9536,13.882 z"
       style="font-variant-ligatures:none"
       id="path213647" /><path
       d="m 605.9,372.94 c -1.9008,-2.9952 -4.5504,-5.3568 -7.9488,-7.0272 -3.456,-1.6128 -7.3728,-2.4768 -11.75,-2.4768 h -19.066 v 9.1008 h 18.605 c 3.456,0 6.2208,0.9792 8.2944,2.9376 2.0736,2.016 3.168,4.7232 3.168,8.1216 0,3.456 -1.0944,6.1632 -3.168,8.1216 -2.0736,1.9584 -4.8384,2.9376 -8.2944,2.9376 h -7.2 v -10.714 h -11.405 v 19.814 h 19.066 c 4.3776,0 8.2944,-0.8064 11.75,-2.4768 3.3984,-1.6128 6.048,-3.9744 7.9488,-7.0272 1.8432,-2.9952 2.8224,-6.5664 2.8224,-10.656 0,-4.032 -0.9792,-7.6032 -2.8224,-10.656 z"
       style="font-variant-ligatures:none"
       id="path213649" /><path
       d="m 661.48,372.94 c -1.9008,-2.9952 -4.5504,-5.3568 -7.9488,-7.0272 -3.456,-1.6128 -7.3728,-2.4768 -11.75,-2.4768 h -19.066 v 9.1008 h 18.605 c 3.456,0 6.2208,0.9792 8.2944,2.9376 2.0736,2.016 3.168,4.7232 3.168,8.1216 0,3.456 -1.0944,6.1632 -3.168,8.1216 -2.0736,1.9584 -4.8384,2.9376 -8.2944,2.9376 h -7.2 v -10.714 h -11.405 v 19.814 h 19.066 c 4.3776,0 8.2944,-0.8064 11.75,-2.4768 3.3984,-1.6128 6.048,-3.9744 7.9488,-7.0272 1.8432,-2.9952 2.8224,-6.5664 2.8224,-10.656 0,-4.032 -0.9792,-7.6032 -2.8224,-10.656 z"
       style="font-variant-ligatures:none"
       id="path213651" /><path
       d="m 698.22,389.3 15.437,-25.862 h -11.059 l -9.5616,16.013 -9.5616,-16.013 h -12.038 l 15.379,25.69 v 14.63 h 11.405 z"
       style="font-variant-ligatures:none"
       id="path213653" /></g></svg>