<?xml version="1.0" encoding="UTF-8" standalone="no"?>
<svg
   xmlns:dc="http://purl.org/dc/elements/1.1/"
   xmlns:cc="http://creativecommons.org/ns#"
   xmlns:rdf="http://www.w3.org/1999/02/22-rdf-syntax-ns#"
   xmlns:svg="http://www.w3.org/2000/svg"
   xmlns="http://www.w3.org/2000/svg"
   id="svg13"
   xml:space="preserve"
   viewBox="0 0 1024 768"
   y="0px"
   x="0px"
   version="1.1"><metadata
     id="metadata19"><rdf:RDF><cc:Work
         rdf:about=""><dc:format>image/svg+xml</dc:format><dc:type
           rdf:resource="http://purl.org/dc/dcmitype/StillImage" /></cc:Work></rdf:RDF></metadata><defs
     id="defs17" /><g
     transform="matrix(2.6917,0,0,2.6917,-865.57,-655.28)"
     id="logo-group"><g
       transform="matrix(1.2,0,0,1.2,392,264)"
       id="container-group"><path
         style="fill:#202225"
         d="m 99.496,22.479 c -0.39754,0.0044 -1.3483,0.02724 -2.1128,0.05004 -0.7645,0.0228 -1.8276,0.0695 -2.363,0.10342 -0.53487,0.03392 -1.4234,0.09952 -1.9738,0.14567 -0.55044,0.04615 -1.4512,0.134 -2.0016,0.1946 -0.55044,0.06116 -1.4634,0.17403 -2.0294,0.25076 -0.56545,0.07673 -1.6291,0.23964 -2.363,0.3614 -0.73392,0.12176 -1.8971,0.33471 -2.5854,0.47316 -0.68777,0.139 -1.7887,0.37919 -2.4464,0.53376 -0.65719,0.15512 -1.658,0.40477 -2.224,0.55544 -0.56545,0.15068 -1.5401,0.42534 -2.1651,0.60993 -0.62494,0.18459 -1.6508,0.50596 -2.2796,0.7139 -0.62884,0.20739 -1.6057,0.54544 -2.1717,0.75116 -0.56545,0.20516 -1.6513,0.62161 -2.4119,0.92574 -0.76116,0.30358 -1.9243,0.79119 -2.5854,1.0836 -0.66108,0.2919 -1.9777,0.91184 -2.9257,1.3778 -0.94798,0.46593 -2.2807,1.1526 -2.9613,1.5257 -0.68054,0.37308 -1.6597,0.92685 -2.1756,1.2299 -0.51597,0.30358 -1.385,0.83178 -1.9315,1.1737 -0.54655,0.34194 -1.5612,1.0047 -2.2551,1.4728 -0.69389,0.46815 -1.7164,1.1815 -2.2718,1.5846 -0.55544,0.40366 -1.4812,1.1003 -2.0566,1.5479 -0.57546,0.44814 -1.4545,1.1543 -1.9538,1.5701 -0.49929,0.41533 -1.2577,1.062 -1.6858,1.4367 -0.42812,0.37474 -1.2037,1.0759 -1.7236,1.5585 -0.51986,0.48205 -1.6335,1.574 -2.4748,2.4258 -0.84123,0.85179 -1.8676,1.9243 -2.2807,2.383 -0.41311,0.4587 -1.1159,1.2593 -1.5618,1.7792 -0.44647,0.51986 -1.1815,1.4078 -1.6346,1.9738 -0.45314,0.56545 -1.1776,1.504 -1.6102,2.085 -0.43312,0.58102 -1.0503,1.4317 -1.3722,1.8904 -0.32137,0.4587 -0.83567,1.2104 -1.1426,1.6697 -0.30691,0.45981 -0.87014,1.3355 -1.2516,1.946 -0.38197,0.61104 -0.98245,1.6107 -1.335,2.2223 -0.35195,0.6116 -0.87848,1.5496 -1.1687,2.085 -0.29079,0.53487 -0.78507,1.4856 -1.0981,2.1117 -0.31303,0.62606 -0.80064,1.6396 -1.0836,2.2518 -0.283,0.61216 -0.69111,1.5262 -0.90628,2.0305 -0.21517,0.50429 -0.57101,1.3678 -0.79119,1.9182 -0.22018,0.55044 -0.56934,1.4634 -0.77562,2.0294 -0.20683,0.56601 -0.59047,1.6791 -0.8529,2.4742 -0.26243,0.79508 -0.6394,2.0083 -0.83789,2.6966 -0.19905,0.68777 -0.46259,1.6385 -0.58602,2.1128 -0.12343,0.47371 -0.34806,1.4 -0.49929,2.0572 -0.15123,0.65719 -0.38864,1.7709 -0.52709,2.4742 -0.13844,0.70334 -0.32693,1.7292 -0.41811,2.2796 -0.09174,0.55044 -0.22963,1.4384 -0.30636,1.9738 -0.07673,0.53487 -0.20238,1.5357 -0.27911,2.224 -0.07673,0.68777 -0.17736,1.7136 -0.22407,2.2796 -0.04615,0.56545 -0.0973,1.216 -0.11342,1.4456 -0.01557,0.22907 -0.05504,0.92963 -0.08674,1.5568 -0.03169,0.62661 -0.05782,2.2657 -0.05782,3.6418 -5.56e-4,1.3761 0.02669,3.0524 0.06005,3.7252 0.0328,0.67276 0.0973,1.7108 0.14289,2.3074 0.04559,0.59603 0.13288,1.5718 0.19404,2.1684 0.06116,0.59603 0.17403,1.5718 0.25076,2.1684 0.07673,0.59603 0.25131,1.7636 0.38809,2.5943 0.13678,0.8301 0.33749,1.956 0.44591,2.502 0.10842,0.54543 0.33304,1.5924 0.49984,2.3263 0.16624,0.73392 0.46537,1.9404 0.66442,2.6816 0.19905,0.74115 0.5232,1.8793 0.72002,2.5298 0.19738,0.65052 0.55822,1.7703 0.80175,2.4892 0.24408,0.71835 0.59325,1.7069 0.77618,2.1962 0.18292,0.48928 0.48372,1.2682 0.66887,1.7314 0.18515,0.4626 0.52486,1.2821 0.7556,1.8215 0.23074,0.53876 0.66053,1.4984 0.95521,2.1328 0.29468,0.63439 0.72336,1.5284 0.95243,1.9871 0.22907,0.4587 0.62939,1.2343 0.8896,1.7236 0.26021,0.48928 0.78618,1.44 1.1687,2.1128 0.38253,0.67276 0.93352,1.6107 1.2249,2.085 0.2919,0.47371 0.80564,1.2871 1.142,1.807 0.33638,0.51986 0.86236,1.3077 1.1687,1.7514 0.30636,0.44313 0.88293,1.2566 1.2821,1.807 0.39865,0.55044 1.0859,1.4634 1.5273,2.0294 0.44091,0.56545 1.2204,1.529 1.7319,2.1406 0.51152,0.6116 1.1865,1.3994 1.4995,1.7514 0.31303,0.35139 0.98968,1.0898 1.504,1.6402 0.51374,0.55044 1.3661,1.4261 1.8932,1.946 l 0.95854,0.9452 -0.74726,-0.8062 c -0.41033,-0.44369 -1.0364,-1.1315 -1.39,-1.529 -0.35362,-0.39754 -0.9402,-1.0731 -1.3033,-1.5012 -0.36251,-0.42812 -1.0047,-1.211 -1.4267,-1.7392 -0.42256,-0.52875 -1.0636,-1.3544 -1.4245,-1.8348 -0.3614,-0.48094 -0.91184,-1.231 -1.2238,-1.6669 -0.31136,-0.43646 -0.9124,-1.3122 -1.3355,-1.946 -0.42312,-0.63439 -0.92796,-1.4033 -1.122,-1.7091 -0.19404,-0.3058 -0.56378,-0.90628 -0.82177,-1.3344 -0.25854,-0.42812 -0.71279,-1.2037 -1.0097,-1.7236 -0.29746,-0.51986 -0.72391,-1.2832 -0.94742,-1.6958 -0.22351,-0.41311 -0.73781,-1.4139 -1.142,-2.224 -0.40477,-0.81065 -0.92407,-1.8865 -1.1537,-2.3908 -0.23018,-0.50485 -0.60604,-1.3583 -0.83567,-1.8971 -0.22963,-0.53821 -0.55989,-1.3388 -0.73392,-1.7792 -0.17347,-0.4398 -0.46648,-1.1998 -0.64996,-1.6891 -0.18404,-0.48928 -0.57991,-1.628 -0.8807,-2.5298 -0.3008,-0.90183 -0.7089,-2.2034 -0.90739,-2.8912 -0.19794,-0.68833 -0.49818,-1.7892 -0.66776,-2.4464 -0.16902,-0.65775 -0.44536,-1.8209 -0.61327,-2.5854 -0.16847,-0.7645 -0.41922,-2.0105 -0.55767,-2.7683 -0.13844,-0.75839 -0.33916,-1.9844 -0.44647,-2.7244 -0.10786,-0.7406 -0.25743,-1.8965 -0.3336,-2.5693 -0.07617,-0.67276 -0.1757,-1.6736 -0.22184,-2.224 -0.04615,-0.55044 -0.10898,-1.4011 -0.14011,-1.8904 -0.03114,-0.48928 -0.08284,-1.7403 -0.11565,-2.78 -0.03225,-1.0397 -0.04392,-2.5159 -0.02558,-3.2804 0.01835,-0.7645 0.05782,-1.9154 0.08729,-2.5576 0.03002,-0.64218 0.0923,-1.6808 0.139,-2.3074 0.0467,-0.62717 0.14734,-1.728 0.22351,-2.4464 0.07617,-0.71891 0.21406,-1.8448 0.30636,-2.502 0.0923,-0.65775 0.22963,-1.5707 0.3058,-2.0294 0.07562,-0.4587 0.23908,-1.3594 0.36196,-2.0016 0.12343,-0.64218 0.32415,-1.618 0.44647,-2.1684 0.12176,-0.55044 0.34694,-1.5012 0.49984,-2.1128 0.1529,-0.6116 0.41589,-1.6002 0.5838,-2.1962 0.16847,-0.59659 0.45703,-1.5724 0.64218,-2.1684 0.18459,-0.59659 0.53598,-1.6597 0.78118,-2.363 0.24464,-0.70334 0.65886,-1.8292 0.91907,-2.502 0.26076,-0.67276 0.68166,-1.7119 0.93519,-2.3096 0.25354,-0.5977 0.66553,-1.5362 0.91629,-2.085 0.25076,-0.54933 0.78062,-1.6491 1.1787,-2.4442 0.39754,-0.79508 0.89905,-1.7709 1.1137,-2.1684 0.21517,-0.39754 0.63384,-1.1481 0.93074,-1.668 0.2969,-0.51986 0.7973,-1.3705 1.112,-1.8904 0.31525,-0.51986 0.89071,-1.4361 1.2794,-2.0361 0.38864,-0.59992 1.0642,-1.6007 1.5012,-2.224 0.43702,-0.62328 1.1326,-1.5835 1.5457,-2.1339 0.41311,-0.55044 0.98912,-1.301 1.2799,-1.668 0.29079,-0.36696 0.88348,-1.0925 1.3166,-1.6124 0.43368,-0.51986 1.1326,-1.3333 1.5535,-1.807 0.42034,-0.47427 1.3188,-1.4456 1.996,-2.1589 0.67721,-0.7139 1.8192,-1.8543 2.5376,-2.5354 0.71891,-0.68054 1.5446,-1.4484 1.8348,-1.7069 0.29079,-0.25798 0.81621,-0.71946 1.1676,-1.0247 0.35195,-0.30524 0.98968,-0.84401 1.4178,-1.1971 0.42812,-0.35306 1.0164,-0.829 1.3066,-1.0581 0.29079,-0.22907 0.97856,-0.75394 1.529,-1.1665 0.55044,-0.41255 1.301,-0.96355 1.668,-1.2243 0.36696,-0.26076 0.94242,-0.66275 1.2788,-0.89405 0.33638,-0.23074 1.0497,-0.70223 1.5846,-1.0469 0.53543,-0.34528 1.3744,-0.8707 1.8648,-1.1676 0.49039,-0.29746 1.3283,-0.79063 1.8626,-1.0964 0.53376,-0.3058 1.3088,-0.73781 1.7214,-0.96077 0.41311,-0.2224 1.4139,-0.73614 2.224,-1.1409 0.81065,-0.40532 1.8987,-0.93019 2.4186,-1.1665 0.51986,-0.2363 1.2955,-0.57824 1.7236,-0.76005 0.42812,-0.18237 1.2666,-0.52653 1.8626,-0.76561 0.59659,-0.23852 1.6346,-0.6344 2.3074,-0.87904 0.67276,-0.24464 1.693,-0.5977 2.2674,-0.78452 0.57435,-0.18682 1.5034,-0.47705 2.065,-0.64496 0.561,-0.16736 1.43,-0.41589 1.9304,-0.551 0.5004,-0.13511 1.3728,-0.35918 1.9382,-0.49706 0.56601,-0.13789 1.4473,-0.34083 1.9593,-0.45036 0.51208,-0.11009 1.3255,-0.27522 1.807,-0.36752 0.48205,-0.0923 1.3894,-0.25354 2.0161,-0.35862 0.62717,-0.10453 1.6029,-0.25298 2.1684,-0.32971 0.56601,-0.07673 1.3666,-0.17681 1.7792,-0.22296 0.41311,-0.04559 1.1387,-0.12121 1.6124,-0.16736 0.47427,-0.04615 1.4122,-0.12176 2.085,-0.16791 0.67276,-0.04615 2.1551,-0.11231 3.2943,-0.14734 1.5607,-0.04837 2.5815,-0.04837 4.1422,0 1.1392,0.03503 2.4592,0.08896 2.9329,0.11954 0.47427,0.03058 1.2999,0.09396 1.8348,0.14011 0.53543,0.04615 1.5362,0.14734 2.224,0.22462 0.68833,0.07728 1.6763,0.20183 2.1962,0.27744 0.51986,0.07506 1.4706,0.22574 2.1128,0.33471 0.64218,0.10898 1.8431,0.33582 2.6688,0.50429 0.82566,0.16847 2.3269,0.5143 3.336,0.76895 1.0091,0.25465 2.3852,0.62661 3.058,0.82677 0.67276,0.20016 1.7114,0.52486 2.3074,0.72169 0.59659,0.19682 1.584,0.53821 2.1956,0.7595 0.61105,0.22073 1.6741,0.62661 2.363,0.90183 0.68833,0.27522 1.7269,0.70779 2.308,0.96132 0.58102,0.25354 1.5946,0.71502 2.2518,1.0253 0.65719,0.3108 1.6836,0.81676 2.2796,1.1259 0.59659,0.30858 1.5557,0.82177 2.1317,1.1409 0.57602,0.31859 1.5146,0.85735 2.085,1.1971 0.57046,0.33916 1.4506,0.87792 1.9549,1.1971 0.50429,0.31914 1.4178,0.91907 2.0294,1.3333 0.6116,0.41422 1.5874,1.0987 2.1684,1.5212 0.58102,0.42256 1.435,1.0631 1.8982,1.4234 0.46315,0.35973 1.216,0.96021 1.6736,1.3333 0.45759,0.37363 1.1292,0.93519 1.4934,1.2477 0.36362,0.31303 1.0247,0.89572 1.4678,1.2949 0.44369,0.39921 1.0442,0.94965 1.3344,1.2238 0.29079,0.27355 0.0656,0.02836 -0.5004,-0.54599 -0.56545,-0.57379 -1.4662,-1.4517 -2.0016,-1.9504 -0.53487,-0.49873 -1.2994,-1.1932 -1.6986,-1.5435 -0.39921,-0.34972 -1.1687,-1.0047 -1.7091,-1.4545 -0.54099,-0.4498 -1.4417,-1.1754 -2.0022,-1.6113 -0.55989,-0.43646 -1.4795,-1.1287 -2.0439,-1.5385 -0.56378,-0.40977 -1.5507,-1.0998 -2.1929,-1.5329 -0.64218,-0.43312 -1.5807,-1.0492 -2.085,-1.3683 -0.50429,-0.31914 -1.3477,-0.83511 -1.8737,-1.147 -0.52598,-0.31136 -1.4517,-0.84234 -2.0572,-1.1798 -0.60548,-0.33749 -1.9638,-1.0453 -3.0191,-1.5724 -1.0547,-0.52709 -2.4186,-1.1798 -3.0302,-1.45 -0.6116,-0.27077 -1.6168,-0.69945 -2.2334,-0.95354 -0.61716,-0.25354 -1.668,-0.66609 -2.3352,-0.91684 -0.66776,-0.2502 -1.8893,-0.67943 -2.715,-0.95354 -0.82566,-0.27466 -2.1517,-0.68666 -2.9468,-0.91573 -0.79508,-0.22852 -2.1462,-0.58992 -3.0024,-0.80175 -0.85624,-0.21239 -2.2201,-0.52153 -3.0302,-0.68666 -0.81009,-0.16513 -1.9988,-0.38864 -2.641,-0.49651 -0.64218,-0.10786 -1.5179,-0.24742 -1.946,-0.30969 -0.42812,-0.06227 -1.191,-0.16291 -1.6958,-0.22407 -0.50429,-0.06116 -1.43,-0.16068 -2.0572,-0.22184 -0.62661,-0.0606 -1.7025,-0.14901 -2.3908,-0.19571 -0.68777,-0.0467 -2.0639,-0.10953 -3.058,-0.13956 -0.99357,-0.03002 -2.1323,-0.05115 -2.5298,-0.0467 z m 4.2534,4.2256 c -0.77951,0.0044 -1.9432,0.02724 -2.5854,0.0506 -0.64218,0.02335 -1.6052,0.07061 -2.1406,0.10508 -0.53487,0.03447 -1.5223,0.11176 -2.1934,0.1718 -0.67109,0.06005 -1.6469,0.15957 -2.1684,0.22184 -0.52153,0.06227 -1.3105,0.16291 -1.7542,0.22462 -0.44313,0.06116 -1.3316,0.19905 -1.9738,0.3058 -0.64218,0.10731 -1.6802,0.29524 -2.3074,0.41867 -0.62661,0.12288 -1.7308,0.35973 -2.4525,0.52598 -0.72224,0.1668 -1.911,0.46204 -2.641,0.65719 -0.73058,0.1946 -1.8287,0.50596 -2.4403,0.69111 -0.6116,0.1857 -1.6124,0.50374 -2.224,0.70723 -0.6116,0.2035 -1.6374,0.5649 -2.2796,0.80231 -0.64218,0.23797 -1.618,0.61382 -2.1684,0.83567 -0.55044,0.22129 -1.4834,0.61327 -2.0739,0.87014 -0.58992,0.25743 -1.6502,0.74115 -2.3558,1.0747 -0.70556,0.33416 -1.8737,0.91851 -2.5965,1.2988 -0.7228,0.37975 -1.6391,0.87292 -2.0366,1.0948 -0.39754,0.2224 -1.1854,0.67999 -1.7514,1.0164 -0.56545,0.33694 -1.3661,0.8251 -1.7792,1.0848 -0.41255,0.25965 -1.2632,0.81565 -1.8904,1.236 -0.62717,0.41978 -1.5151,1.0325 -1.9738,1.3605 -0.4587,0.3286 -1.2966,0.94798 -1.8626,1.3772 -0.56545,0.42923 -1.4684,1.1376 -2.006,1.5746 -0.53765,0.43702 -1.4006,1.1615 -1.9182,1.6096 -0.51764,0.44758 -1.3533,1.1926 -1.8582,1.6547 -0.50429,0.46259 -1.5802,1.5045 -2.3908,2.3152 -0.81009,0.8112 -1.867,1.9076 -2.348,2.4358 -0.48094,0.52876 -1.2643,1.4145 -1.7403,1.9688 -0.47594,0.55433 -1.1982,1.4228 -1.6052,1.9304 -0.40755,0.50707 -1.0898,1.385 -1.5168,1.951 -0.42701,0.56601 -1.052,1.4161 -1.3883,1.8904 -0.33638,0.47371 -0.9363,1.3494 -1.3338,1.946 -0.39754,0.59603 -0.98634,1.5095 -1.3083,2.0294 -0.32248,0.51986 -0.85012,1.3956 -1.172,1.946 -0.32248,0.55044 -0.8529,1.4884 -1.1793,2.085 -0.32637,0.59603 -0.95187,1.8098 -1.3906,2.6966 -0.43813,0.88682 -0.99913,2.0678 -1.246,2.6238 -0.24742,0.55656 -0.64718,1.484 -0.88904,2.0605 -0.24186,0.57657 -0.65274,1.6102 -0.91406,2.2963 -0.26132,0.68666 -0.67832,1.8487 -0.92685,2.5826 -0.24853,0.73392 -0.6116,1.8609 -0.80676,2.5048 -0.19516,0.64385 -0.49317,1.678 -0.6622,2.2985 -0.16902,0.6205 -0.43201,1.6574 -0.58436,2.3046 -0.1529,0.64718 -0.36752,1.6018 -0.47705,2.1217 -0.10953,0.51986 -0.2969,1.4829 -0.41589,2.1406 -0.11843,0.65719 -0.30413,1.7959 -0.412,2.5298 -0.10786,0.73392 -0.25854,1.8848 -0.33471,2.5576 -0.07617,0.67276 -0.17736,1.6858 -0.22574,2.2518 -0.04782,0.56545 -0.1112,1.4039 -0.14122,1.8626 -0.02947,0.4587 -0.08284,1.7681 -0.11787,2.9101 -0.04837,1.5657 -0.04837,2.5826 -5.56e-4,4.1361 0.03558,1.1331 0.10175,2.6138 0.14845,3.2893 0.04615,0.6761 0.134,1.742 0.1946,2.3691 0.06116,0.62661 0.1857,1.7275 0.278,2.4464 0.09174,0.71835 0.26577,1.911 0.38642,2.6493 0.12065,0.73837 0.30969,1.8014 0.41978,2.363 0.11009,0.561 0.29968,1.4706 0.42145,2.0211 0.12121,0.55044 0.36029,1.5512 0.53042,2.224 0.17014,0.67276 0.46982,1.7859 0.66664,2.4742 0.19682,0.68777 0.64218,2.1017 0.98912,3.1414 0.3475,1.0397 0.8618,2.4887 1.1431,3.2204 0.28134,0.73114 0.76784,1.9321 1.0814,2.6688 0.31358,0.73615 0.77896,1.7892 1.0342,2.3396 0.2552,0.55044 0.7834,1.6319 1.1737,2.403 0.39031,0.77117 1.0269,1.9721 1.415,2.6688 0.38753,0.69667 0.99913,1.7564 1.3594,2.3558 0.35973,0.59882 0.95966,1.5618 1.3327,2.1406 0.37308,0.57824 0.95465,1.4517 1.2927,1.941 0.33749,0.48928 0.91406,1.3022 1.2816,1.807 0.36696,0.50429 0.99746,1.3438 1.4017,1.8648 0.40366,0.52153 1.0836,1.3722 1.5112,1.8904 0.42756,0.51875 1.1404,1.3555 1.5846,1.8604 0.44424,0.50429 1.0297,1.157 1.301,1.4495 0.27188,0.29301 0.75672,0.77062 1.0775,1.062 0.32137,0.29135 0.97189,0.8618 1.4456,1.2688 0.47427,0.40644 1.35,1.1309 1.946,1.6091 0.59659,0.47871 1.5346,1.2093 2.085,1.623 0.55044,0.41422 1.4762,1.087 2.0572,1.4951 0.58102,0.4081 1.4567,1.0041 1.946,1.3249 0.48928,0.32026 1.34,0.86125 1.8904,1.2026 0.55044,0.34083 1.4139,0.85958 1.9182,1.152 0.50485,0.29302 1.3177,0.75172 1.807,1.0197 0.48928,0.26799 1.4901,0.79063 2.224,1.1615 0.73392,0.37085 1.7848,0.88349 2.3352,1.1387 0.55044,0.25576 1.6013,0.72113 2.3352,1.0342 0.73392,0.31358 1.9226,0.79564 2.641,1.0714 0.71891,0.27578 1.9449,0.71835 2.7244,0.98301 0.78007,0.26466 1.8559,0.61549 2.3908,0.77896 0.53543,0.16402 1.2916,0.38864 1.6808,0.49928 0.38976,0.11065 1.1904,0.32471 1.7792,0.47594 0.58936,0.15123 1.5596,0.38642 2.1556,0.52208 0.59659,0.13622 1.5974,0.34862 2.224,0.47205 0.62717,0.12343 1.6652,0.31191 2.3074,0.41867 0.64218,0.10619 1.5307,0.24464 1.9738,0.30746 0.44369,0.0623 1.2193,0.16236 1.7236,0.2224 0.50485,0.0595 1.3177,0.14679 1.807,0.19405 0.48928,0.0467 1.415,0.12232 2.0572,0.16735 0.64218,0.0456 1.931,0.11232 2.8634,0.1479 1.0197,0.0395 2.5159,0.0517 3.752996,0.0317 1.1315,-0.0189 2.5326,-0.0606 3.1136,-0.0928 0.58102,-0.0323 1.6697,-0.10898 2.4186,-0.17069 0.74949,-0.0617 1.9004,-0.17403 2.5576,-0.24965 0.65775,-0.0762 1.6335,-0.20071 2.1684,-0.278 0.53543,-0.0767 1.4234,-0.21517 1.9738,-0.30691 0.55044,-0.0923 1.514,-0.26855 2.1406,-0.39198 0.62717,-0.12343 1.628,-0.33527 2.224,-0.47093 0.59659,-0.13566 1.5724,-0.37308 2.1684,-0.52653 0.59659,-0.15401 1.6458,-0.44258 2.3313,-0.64163 0.6861,-0.19904 1.787,-0.5382 2.4464,-0.75393 0.65997,-0.21573 1.6496,-0.55433 2.2001,-0.75171 0.55044,-0.19794 1.6641,-0.62272 2.4742,-0.94465 0.81009,-0.32137 2.0739,-0.85012 2.8078,-1.1743 0.73392,-0.32415 2.0978,-0.96855 3.0302,-1.4323 0.93297,-0.46314 2.2212,-1.1303 2.8634,-1.4823 0.64218,-0.35195 1.5429,-0.85902 2.0016,-1.127 0.4587,-0.26855 1.2966,-0.77674 1.8626,-1.1292 0.56601,-0.35306 1.5168,-0.96688 2.1128,-1.3644 0.59659,-0.39754 1.5223,-1.0347 2.0572,-1.4172 0.53543,-0.38197 1.3361,-0.97077 1.7792,-1.3083 0.44369,-0.33749 1.2371,-0.9591 1.7631,-1.3811 0.52653,-0.422 1.3149,-1.0703 1.7514,-1.4406 0.43701,-0.37029 1.2571,-1.0892 1.8231,-1.5985 0.56545,-0.50874 1.6508,-1.5384 2.4114,-2.2874 0.76061,-0.74949 1.8142,-1.8254 2.3419,-2.3908 0.52709,-0.56601 1.256,-1.3666 1.6191,-1.7792 0.36362,-0.41311 0.91295,-1.0514 1.221,-1.4178 0.30803,-0.36696 0.86013,-1.0425 1.2276,-1.5012 0.36752,-0.4587 1.0431,-1.3344 1.5018,-1.946 0.4587,-0.6116 1.097,-1.4873 1.4184,-1.946 0.32081,-0.4587 0.83456,-1.2093 1.1404,-1.668 0.30635,-0.4587 0.83233,-1.2721 1.1693,-1.807 0.33693,-0.53543 0.91184,-1.4856 1.2777,-2.1128 0.36641,-0.62717 0.90573,-1.579 1.1993,-2.1161 0.29356,-0.53654 0.91851,-1.7503 1.3883,-2.6966 0.47037,-0.94631 1.1198,-2.3207 1.4434,-3.0547 0.32415,-0.73392 0.75116,-1.7347 0.94965,-2.224 0.19849,-0.48928 0.551,-1.3939 0.78341,-2.0105 0.2324,-0.6166 0.63662,-1.7553 0.89849,-2.5298 0.26243,-0.77506 0.6394,-1.9593 0.83845,-2.6321 0.19905,-0.67276 0.48261,-1.6736 0.6305,-2.224 0.14734,-0.551 0.39476,-1.539 0.54989,-2.1962 0.15457,-0.65775 0.37141,-1.6335 0.48094,-2.1684 0.11009,-0.53543 0.28523,-1.4484 0.3892,-2.0294 0.10453,-0.58102 0.25298,-1.4695 0.33026,-1.9738 0.0778,-0.50485 0.20405,-1.4056 0.28078,-2.0016 0.0767,-0.59659 0.18849,-1.5846 0.24909,-2.1962 0.0606,-0.6116 0.1479,-1.6374 0.19404,-2.2796 0.0462,-0.64218 0.11287,-1.8932 0.14846,-2.78 0.0395,-0.98912 0.0517,-2.5048 0.0311,-3.9198 -0.0189,-1.2693 -0.0601,-2.7455 -0.0923,-3.2804 -0.0323,-0.53543 -0.10842,-1.5735 -0.16958,-2.3074 -0.0612,-0.73392 -0.1618,-1.7848 -0.22407,-2.3352 -0.0623,-0.55044 -0.1757,-1.4512 -0.25187,-2.0016 -0.0762,-0.55044 -0.22629,-1.5262 -0.3336,-2.1684 -0.10731,-0.64218 -0.30413,-1.718 -0.43757,-2.3908 -0.134,-0.67276 -0.35862,-1.7236 -0.49929,-2.3352 -0.14122,-0.6116 -0.40699,-1.683 -0.59103,-2.3813 -0.18403,-0.69834 -0.48483,-1.7742 -0.66887,-2.3908 -0.18348,-0.6166 -0.52986,-1.7091 -0.76894,-2.4281 -0.23908,-0.71891 -0.67888,-1.9571 -0.9769,-2.7522 -0.29801,-0.79508 -0.7784,-2.0088 -1.0681,-2.6966 -0.28968,-0.68833 -0.74226,-1.7264 -1.0058,-2.3074 -0.26354,-0.58102 -0.81009,-1.7197 -1.2143,-2.5298 -0.40477,-0.81009 -0.99635,-1.9488 -1.3149,-2.5298 -0.31859,-0.58102 -0.79842,-1.4317 -1.067,-1.8904 -0.26855,-0.4587 -0.74115,-1.2471 -1.0503,-1.7514 -0.30913,-0.50429 -0.92685,-1.4678 -1.3722,-2.1406 -0.44535,-0.67276 -1.0948,-1.6235 -1.4423,-2.1128 -0.34806,-0.48928 -0.92685,-1.281 -1.286,-1.7592 -0.35917,-0.47816 -0.95965,-1.2538 -1.3338,-1.7236 -0.37419,-0.46982 -0.93186,-1.1543 -1.2382,-1.5212 -0.30692,-0.36696 -0.89572,-1.0553 -1.3094,-1.529 -0.41311,-0.47427 -0.97134,-1.0798 -1.2404,-1.3466 -0.2691,-0.26632 -0.89516,-0.84568 -1.3911,-1.2871 -0.49651,-0.44146 -1.2527,-1.0975 -1.6808,-1.4573 -0.42812,-0.36029 -1.191,-0.98356 -1.6958,-1.3856 -0.50429,-0.40199 -1.3678,-1.0686 -1.9182,-1.4823 -0.55044,-0.41311 -1.34,-0.98968 -1.7542,-1.2805 -0.41422,-0.29134 -1.2399,-0.85402 -1.8348,-1.2516 -0.59492,-0.39698 -1.4828,-0.973 -1.9732,-1.2799 -0.49095,-0.30691 -1.3416,-0.82066 -1.8904,-1.142 -0.54933,-0.32081 -1.4862,-0.85124 -2.0828,-1.1782 -0.59603,-0.32693 -1.772,-0.93797 -2.6132,-1.3578 -0.84067,-0.41978 -1.9916,-0.97244 -2.5576,-1.2282 -0.56601,-0.25576 -1.5162,-0.66998 -2.1128,-0.92129 -0.59603,-0.25076 -1.6096,-0.65719 -2.2518,-0.9035 -0.64218,-0.24631 -1.7169,-0.63884 -2.3875,-0.87236 -0.6711,-0.23408 -1.7814,-0.59937 -2.467,-0.81176 -0.68554,-0.21295 -1.8003,-0.53932 -2.477,-0.72447 -0.6772,-0.1857 -1.688,-0.44814 -2.2462,-0.5838 -0.55878,-0.13511 -1.5351,-0.35751 -2.1695,-0.49373 -0.63495,-0.13622 -1.6291,-0.3336 -2.2095,-0.43924 -0.58047,-0.10564 -1.5429,-0.26855 -2.1395,-0.3614 -0.59603,-0.09341 -1.5846,-0.23241 -2.1962,-0.30914 -0.6116,-0.07673 -1.6246,-0.19015 -2.2518,-0.25187 -0.62661,-0.06116 -1.6902,-0.14956 -2.363,-0.19516 -0.67276,-0.04615 -1.911,-0.10842 -2.7522,-0.139 -0.84067,-0.03058 -2.1667,-0.05171 -2.9468,-0.04726 z"
         id="container" /></g><path
       stroke-miterlimit="2"
       d="m 461.36,414.55 c -0.7072,-0.816 -1.7408,-1.3328 -3.1008,-1.6048 0.952,-0.2992 1.7408,-0.8432 2.312,-1.6048 0.57121,-0.7344 0.8704,-1.632 0.8704,-2.7472 0,-1.5504 -0.5984,-2.7472 -1.7408,-3.5904 -1.1424,-0.8432 -2.7472,-1.2784 -4.8144,-1.2784 h -7.9424 v 1.1968 h 7.888 c 1.6592,0 2.9376,0.3264 3.8352,0.9792 0.8976,0.6528 1.36,1.5776 1.36,2.8016 0,1.2512 -0.4624,2.2032 -1.36,2.856 -0.8976,0.6528 -2.176,0.952 -3.8352,0.952 h -7.888 v 1.1968 h 8.4864 c 1.8224,0 3.2368,0.3264 4.1888,0.952 0.952,0.6528 1.4416,1.632 1.4416,2.9648 0,1.36 -0.4896,2.3392 -1.4416,2.992 -0.952,0.6528 -2.3392,0.952 -4.1888,0.952 h -8.4864 v 1.1968 h 8.4864 c 2.312,0 4.0528,-0.4352 5.2496,-1.3056 1.1696,-0.8704 1.768,-2.0944 1.768,-3.7264 0,-1.2784 -0.3808,-2.3392 -1.088,-3.1824 z"
       style="font-variant-ligatures:none;fill:#ffffff;stroke:#ffffff;stroke-width:2.46499991;stroke-miterlimit:2"
       id="path474535" /><path
       stroke-miterlimit="2"
       d="m 477.72,420.8 c 1.3328,1.4144 3.2096,2.0944 5.6304,2.0944 2.3936,0 4.2704,-0.68 5.6304,-2.0944 1.3328,-1.3872 2.0128,-3.4272 2.0128,-6.12 v -10.96 h -1.3872 v 10.907 c 0,2.3392 -0.544,4.1072 -1.6048,5.2496 -1.088,1.1696 -2.6112,1.7408 -4.624,1.7408 -2.04,0 -3.5904,-0.5712 -4.6512,-1.7408 -1.088,-1.1424 -1.6048,-2.9104 -1.6048,-5.2496 v -10.91 h -1.3872 v 10.962 c 0,2.6928 0.6528,4.7328 1.9856,6.12 z"
       style="font-variant-ligatures:none;fill:#ffffff;stroke:#ffffff;stroke-width:2.46499991;stroke-miterlimit:2"
       id="path474537" /><path
       stroke-miterlimit="2"
       d="m 522.34,408.35 c -0.8704,-1.4416 -2.0672,-2.5568 -3.5904,-3.4 -1.5232,-0.816 -3.2912,-1.224 -5.2496,-1.224 h -7.5344 v 1.2512 h 7.4256 c 1.7408,0 3.2912,0.3536 4.6512,1.0608 1.3328,0.7072 2.3664,1.6864 3.1008,2.9104 0.7072,1.2512 1.088,2.6928 1.088,4.2976 0,1.632 -0.3808,3.0464 -1.088,4.2976 -0.7344,1.2512 -1.768,2.2304 -3.1008,2.9376 -1.36,0.7072 -2.9104,1.0336 -4.6512,1.0336 h -6.0384 v -8.2688 h -1.3872 v 9.52 H 513.5 c 1.9584,0 3.7264,-0.408 5.2496,-1.224 1.5232,-0.816 2.72,-1.9312 3.5904,-3.3728 0.8432,-1.4416 1.2784,-3.0736 1.2784,-4.9232 0,-1.8224 -0.4352,-3.4544 -1.2784,-4.896 z"
       style="font-variant-ligatures:none;fill:#ffffff;stroke:#ffffff;stroke-width:2.46499991;stroke-miterlimit:2"
       id="path474539" /><path
       stroke-miterlimit="2"
       d="m 553.31,408.35 c -0.8704,-1.4416 -2.0672,-2.5568 -3.5904,-3.4 -1.5232,-0.816 -3.2912,-1.224 -5.2496,-1.224 h -7.5344 v 1.2512 h 7.4256 c 1.7408,0 3.2912,0.3536 4.6512,1.0608 1.3328,0.7072 2.3664,1.6864 3.1008,2.9104 0.7072,1.2512 1.088,2.6928 1.088,4.2976 0,1.632 -0.3808,3.0464 -1.088,4.2976 -0.7344,1.2512 -1.768,2.2304 -3.1008,2.9376 -1.36,0.7072 -2.9104,1.0336 -4.6512,1.0336 h -6.0384 v -8.2688 h -1.3872 v 9.52 h 7.5344 c 1.9584,0 3.7264,-0.408 5.2496,-1.224 1.5232,-0.816 2.72,-1.9312 3.5904,-3.3728 0.8432,-1.4416 1.2784,-3.0736 1.2784,-4.9232 0,-1.8224 -0.43521,-3.4544 -1.2784,-4.896 z"
       style="font-variant-ligatures:none;fill:#ffffff;stroke:#ffffff;stroke-width:2.46499991;stroke-miterlimit:2"
       id="path474541" /><path
       stroke-miterlimit="2"
       d="m 572.99,416.21 7.6704,-12.485 h -1.4416 l -6.8816,11.206 -6.8816,-11.206 h -1.5232 l 7.6704,12.485 v 6.5552 h 1.3872 z"
       style="font-variant-ligatures:none;fill:#ffffff;stroke:#ffffff;stroke-width:2.46499991;stroke-miterlimit:2"
       id="path474543" /><path
       stroke-miterlimit="2"
       d="m 446.23,353.5 v 40.32 h 30.643 v -9.0432 h -19.23 v -31.28 z"
       style="font-variant-ligatures:none;fill:#ffffff;stroke-width:0;stroke-miterlimit:2"
       id="path474546" /><path
       stroke-miterlimit="2"
       d="m 513.92,353.5 h -11.232 l -17.798,40.32 h 11.635 l 3.168,-7.8336 3.3408,-8.4096 5.184,-12.902 5.184,12.902 3.3408,8.4096 3.168,7.8336 h 11.866 z"
       style="font-variant-ligatures:none;fill:#ffffff;stroke-width:0;stroke-miterlimit:2"
       id="path474548" /><path
       stroke-miterlimit="2"
       d="m 543.01,393.82 h 11.174 v -6.7968 l -11.17,-14.22 z m 27.187,-40.32 v 7.3152 l 11.174,13.478 v -20.8 z m 0,21.485 -17.798,-21.485 h -9.3888 v 5.3568 l 11.174,13.478 17.798,21.485 h 9.3888 v -4.6656 l -11.174,-14.227 z"
       style="font-variant-ligatures:none;fill:#ffffff;stroke-width:0;stroke-miterlimit:2"
       id="path474550" /></g></svg>